<svg width="12" height="12" viewBox="0 0 12 12" fill="none" xmlns="http://www.w3.org/2000/svg">
<path d="M6.00215 12C5.84082 12 5.68682 11.9487 5.54015 11.846C5.39348 11.7433 5.32015 11.6113 5.32015 11.45V6.786H1.05215C0.905482 6.786 0.788148 6.72733 0.700148 6.61C0.612148 6.478 0.568148 6.33867 0.568148 6.192C0.568148 6.04533 0.612148 5.91333 0.700148 5.796C0.788148 5.664 0.905482 5.598 1.05215 5.598H5.32015V1.462C5.32015 1.30067 5.39348 1.16867 5.54015 1.066C5.68682 0.963333 5.84815 0.912 6.02415 0.912C6.18548 0.912 6.33948 0.963333 6.48615 1.066C6.63282 1.16867 6.70615 1.30067 6.70615 1.462V5.598H10.9521C11.0988 5.598 11.2161 5.664 11.3041 5.796C11.3921 5.91333 11.4361 6.04533 11.4361 6.192C11.4361 6.33867 11.3921 6.478 11.3041 6.61C11.2161 6.72733 11.0988 6.786 10.9521 6.786H6.70615V11.45C6.70615 11.6113 6.63282 11.7433 6.48615 11.846C6.33948 11.9487 6.17815 12 6.00215 12Z" fill="#4C4239"/>
</svg>
