<svg width="220" height="69" viewBox="0 0 220 69" fill="none" xmlns="http://www.w3.org/2000/svg">
<path d="M39.28 27.08C39.6533 26.12 40.1067 24.6 40.64 22.52C41.1733 20.3867 41.44 18.0667 41.44 15.56C41.44 14.12 41.1733 12.6 40.64 11C40.16 9.4 39.3867 8.22667 38.32 7.48C39.8667 7.21333 41.52 6.84 43.28 6.36C45.04 5.82667 46.8 5.26667 48.56 4.68C50.32 4.04 52.0267 3.37333 53.68 2.68C55.3867 1.93333 56.96 1.24 58.4 0.599997C56.32 3.05333 54.5333 5.34666 53.04 7.48C51.6 9.61333 50.32 11.7467 49.2 13.88C48.08 16.0133 47.0667 18.2 46.16 20.44C45.2533 22.68 44.2933 25.1333 43.28 27.8L30.64 61.56L35.84 67H16.24L21.44 61.56L5.76 18.92L0 13.32H20.64L14.8 18.92L28.48 55.96L39.28 27.08ZM98.4706 40.2C98.4706 44.1467 97.964 47.8267 96.9506 51.24C95.9906 54.6 94.5506 57.5333 92.6306 60.04C90.7106 62.5467 88.3106 64.52 85.4306 65.96C82.5506 67.4 79.2173 68.12 75.4306 68.12C71.4306 68.12 67.9906 67.3733 65.1106 65.88C62.2306 64.3867 59.8306 62.3867 57.9106 59.88C56.044 57.32 54.6573 54.36 53.7506 51C52.844 47.5867 52.3906 43.9867 52.3906 40.2C52.3906 36.1467 52.8706 32.4133 53.8306 29C54.844 25.5867 56.3106 22.6533 58.2306 20.2C60.1506 17.6933 62.5506 15.7467 65.4306 14.36C68.3106 12.92 71.644 12.2 75.4306 12.2C79.5906 12.2 83.1106 12.9733 85.9906 14.52C88.924 16.0667 91.2973 18.1467 93.1106 20.76C94.9773 23.3733 96.3373 26.36 97.1906 29.72C98.044 33.08 98.4706 36.5733 98.4706 40.2ZM88.7906 40.2C88.7906 38.12 88.5773 35.6933 88.1506 32.92C87.7773 30.1467 87.084 27.5333 86.0706 25.08C85.1106 22.6267 83.7506 20.5467 81.9906 18.84C80.284 17.1333 78.0973 16.28 75.4306 16.28C73.6173 16.28 72.0173 16.68 70.6306 17.48C69.2973 18.2267 68.124 19.24 67.1106 20.52C66.1506 21.8 65.324 23.2667 64.6306 24.92C63.9906 26.5733 63.484 28.3067 63.1106 30.12C62.7373 31.88 62.4706 33.64 62.3106 35.4C62.1506 37.16 62.0706 38.76 62.0706 40.2C62.0706 43.1333 62.3106 46.04 62.7906 48.92C63.2706 51.7467 64.044 54.28 65.1106 56.52C66.2306 58.76 67.6173 60.5733 69.2706 61.96C70.9773 63.3467 73.0306 64.04 75.4306 64.04C77.7773 64.04 79.7773 63.3467 81.4306 61.96C83.1373 60.5733 84.524 58.76 85.5906 56.52C86.7106 54.28 87.5106 51.7467 87.9906 48.92C88.524 46.04 88.7906 43.1333 88.7906 40.2ZM102.069 67L108.149 61.56V18.92L102.069 13.32H122.869L116.709 18.92V61.56L122.869 67H102.069ZM148.933 62.92C151.813 62.92 154.346 61.96 156.533 60.04C158.773 58.12 160.4 54.9733 161.413 50.6H161.813C162.186 52.4667 162.613 54.1467 163.093 55.64C163.626 57.1333 164.186 58.52 164.773 59.8C165.413 61.08 166.106 62.3067 166.853 63.48C167.6 64.6533 168.453 65.8267 169.413 67H126.053L132.133 61.56V18.92L126.053 13.32H146.773L140.693 18.92V62.92H148.933ZM179.674 40.2C178.288 40.2 176.848 40.5733 175.354 41.32C173.914 42.0133 172.741 42.8667 171.834 43.88C171.834 41.48 172.554 39.5867 173.994 38.2C175.488 36.8133 177.381 36.0933 179.674 36.04V18.92L173.594 13.32H218.074C216.528 15.4 215.168 17.5067 213.994 19.64C212.821 21.72 211.648 23.9333 210.474 26.28C209.888 25 209.274 23.8267 208.634 22.76C208.048 21.64 207.328 20.68 206.474 19.88C205.621 19.08 204.581 18.4667 203.354 18.04C202.181 17.6133 200.714 17.4 198.954 17.4H188.234V36.04H199.274L204.554 29.16H204.794V47.08H204.554L199.274 40.2H188.234V62.92H195.274C197.514 62.92 199.408 62.84 200.954 62.68C202.501 62.4667 203.861 62.0133 205.034 61.32C206.261 60.6267 207.408 59.64 208.474 58.36C209.541 57.0267 210.688 55.24 211.914 53C212.448 54.5467 212.981 55.9333 213.514 57.16C214.048 58.3333 214.608 59.4533 215.194 60.52C215.781 61.5867 216.448 62.6533 217.194 63.72C217.941 64.7333 218.794 65.8267 219.754 67H173.594L179.674 61.48V40.2Z" fill="#4C4239"/>
</svg>
